<svg width="512" height="512" viewBox="0 0 512 512" fill="none" xmlns="http://www.w3.org/2000/svg">
  <defs>
    <linearGradient id="grad" x1="0%" y1="0%" x2="100%" y2="100%">
      <stop offset="0%" style="stop-color:#7B3FE4;stop-opacity:1" />
      <stop offset="100%" style="stop-color:#3F8EFC;stop-opacity:1" />
    </linearGradient>
    <filter id="shadow" x="-20%" y="-20%" width="140%" height="140%">
      <feGaussianBlur in="SourceAlpha" stdDeviation="15" />
      <feOffset dx="0" dy="10" result="offsetblur" />
      <feComponentTransfer>
        <feFuncA type="linear" slope="0.3" />
      </feComponentTransfer>
      <feMerge>
        <feMergeNode />
        <feMergeNode in="SourceGraphic" />
      </feMerge>
    </filter>
  </defs>
  <rect width="512" height="512" rx="128" fill="url(#grad)" />
  <g filter="url(#shadow)">
    <!-- Symbol A -->
    <path d="M160 340L215 180H245L300 340H275L260 295H200L185 340H160ZM208 272H252L230 205L208 272Z" fill="white" />
    <!-- Symbol 文 -->
    <path d="M340 180H420V200H395L385 240H430V260H378L360 340H335L353 260H310V240H358L368 200H340V180Z" fill="white" fill-opacity="0.9" transform="translate(-40, 20) scale(0.8)" />
    <!-- Minimalist link/connection lines -->
    <rect x="235" y="240" width="40" height="4" rx="2" fill="white" fill-opacity="0.5" transform="rotate(45 255 260)" />
  </g>
</svg>
